<svg xmlns="http://www.w3.org/2000/svg" viewBox="0 0 2048 2048"><defs><style>.cls-1{fill:#dcf5ff;}.cls-2{fill:#b9e9f9;}.cls-10,.cls-3,.cls-6,.cls-7,.cls-8,.cls-9{fill:#fff;}.cls-10,.cls-11,.cls-15,.cls-3,.cls-6,.cls-7,.cls-8{stroke:#335294;}.cls-15,.cls-3,.cls-6,.cls-7,.cls-8{stroke-linejoin:round;}.cls-10,.cls-11,.cls-12,.cls-15,.cls-3,.cls-8{stroke-width:3px;}.cls-4{fill:#335294;}.cls-5{fill:#6cbfe8;}.cls-15,.cls-7,.cls-8{stroke-linecap:round;}.cls-10,.cls-11,.cls-12{stroke-miterlimit:10;}.cls-11,.cls-12,.cls-15{fill:none;}.cls-12{stroke:#fff;}.cls-13{fill:#0c0498;}.cls-14{fill:#ff7471;}</style></defs><title>Free Online Learning Illustration (SVG)</title><g id="scene"><path class="cls-1" d="M1012.15,799.38c-29.46,67.1-134.6,94.15-215.11,78-73.81-14.78-174.71-75.43-175-175-.3-96.12,93.28-169.83,175-175C933.8,518.7,1055.47,700.73,1012.15,799.38Z"/><path class="cls-1" d="M428.32,798.25c-6.24,14.21-28.52,19.94-45.57,16.52-15.64-3.13-37-16-37.08-37.07-.06-20.36,19.76-36,37.08-37.07C411.72,738.79,437.49,777.35,428.32,798.25Z"/><path class="cls-1" d="M1728.77,515.4c-6.24,14.21-28.52,19.94-45.57,16.53-15.64-3.13-37-16-37.08-37.08-.06-20.36,19.76-36,37.08-37.07C1712.17,455.94,1737.94,494.5,1728.77,515.4Z"/><path class="cls-1" d="M1068.79,1047.5c-6.24,14.21-28.52,19.94-45.57,16.53-15.64-3.13-37-16-37.07-37.08-.07-20.36,19.75-36,37.07-37.07C1052.19,988,1078,1026.6,1068.79,1047.5Z"/><path class="cls-1" d="M1539.92,387.57c3,49.64-140.17,95-178.81,107.29-249.08,79-567.88,41.1-593.87-66.65-12.81-53.08,48.94-108.33,59.6-117.58,34.61-30,105.57-70.9,365.21-29.26C1351.08,306.87,1536.54,331.91,1539.92,387.57Z"/></g><g id="illustration"><path class="cls-2" d="M1677.26,1672.85H974.53a1950.74,1950.74,0,0,1-653.1-112.58L94.76,1479.73C60,1467.39,68.9,1416,105.74,1416H1677.26a32.8,32.8,0,0,1,32.8,32.81v191.23A32.8,32.8,0,0,1,1677.26,1672.85Z"/><polygon class="cls-3" points="261.85 1432.22 975.42 1367.37 1389.97 1483.16 1391.89 1512.64 678.32 1577.48 263.77 1461.7 261.85 1432.22"/><polygon class="cls-3" points="281.2 1434.91 980.32 1393.9 873.41 955.39 873.41 955.39 190.04 987.27 281.2 1434.91"/><path class="cls-4" d="M562.21,986.27c1.09,4.8-1.34,9.45-5.44,10.38s-8.3-2.2-9.4-7,1.34-9.45,5.43-10.38S561.11,981.46,562.21,986.27Z"/><polygon class="cls-3" points="190.04 987.27 873.41 955.39 190.04 987.27 281.2 1434.91 261.9 1432.98 177.11 1000.86 190.04 987.27"/><path class="cls-5" d="M258.75,1022.2,829.3,995.3a13.51,13.51,0,0,1,13.81,10.47l73.58,320.44a13.51,13.51,0,0,1-12,16.48l-572.59,51.38a13.51,13.51,0,0,1-14.44-10.71l-71.55-344.92A13.51,13.51,0,0,1,258.75,1022.2Z"/><polygon class="cls-3" points="261.85 1432.22 676.41 1548 1389.97 1483.16 975.42 1367.37 261.85 1432.22"/><polygon class="cls-3" points="569.69 1499.15 363.06 1441.44 973.73 1385.95 1174.44 1442 569.69 1499.15"/><line class="cls-3" x1="407.09" y1="1453.74" x2="1019.92" y2="1398.85"/><line class="cls-6" x1="458.56" y1="1468.24" x2="1071.39" y2="1413.35"/><line class="cls-6" x1="510.03" y1="1482.75" x2="1122.87" y2="1427.86"/><line class="cls-3" x1="436.93" y1="1435.49" x2="639.39" y2="1491.8"/><line class="cls-7" x1="505.41" y1="1429.53" x2="707.87" y2="1485.84"/><line class="cls-7" x1="564.22" y1="1423.8" x2="766.68" y2="1480.11"/><line class="cls-7" x1="623.03" y1="1418.07" x2="825.5" y2="1474.38"/><line class="cls-7" x1="681.85" y1="1412.35" x2="884.31" y2="1468.65"/><line class="cls-7" x1="743.33" y1="1407.36" x2="943.12" y2="1462.92"/><line class="cls-7" x1="801.9" y1="1401.56" x2="1003.71" y2="1457.69"/><line class="cls-7" x1="861.75" y1="1396.12" x2="1062.6" y2="1451.98"/><line class="cls-7" x1="922.57" y1="1390.95" x2="1121.33" y2="1446.23"/><path class="cls-3" d="M570.81,1069.68l224.35-13.47A3.75,3.75,0,0,1,799,1059l22.34,89.64a3.75,3.75,0,0,1-3.32,4.63l-184.72,13.55a3.76,3.76,0,0,0-2.2,1l-28.31,32.72a3.74,3.74,0,0,1-6.2-2.14l-29.25-124.27A3.74,3.74,0,0,1,570.81,1069.68Z"/><line class="cls-8" x1="653.97" y1="1097.6" x2="687.92" y2="1095.14"/><line class="cls-8" x1="655.05" y1="1112.54" x2="781.2" y2="1105.96"/><line class="cls-8" x1="657.06" y1="1128.31" x2="783.21" y2="1121.73"/><polygon class="cls-3" points="418.32 1252.74 649.19 1234.93 664.6 1288.08 653.87 1289.23 643.35 1290.35 432.08 1309.31 418.32 1252.74"/><path class="cls-4" d="M447.44,1271.69c.61,2.67-.74,5.24-3,5.76s-4.61-1.22-5.21-3.88.74-5.24,3-5.76S446.83,1269,447.44,1271.69Z"/><path class="cls-4" d="M464.07,1269.81c.61,2.66-.74,5.24-3,5.76s-4.61-1.22-5.21-3.88.74-5.25,3-5.76S463.46,1267.15,464.07,1269.81Z"/><path class="cls-4" d="M480.7,1267.92c.61,2.66-.74,5.24-3,5.76s-4.61-1.22-5.22-3.88.74-5.24,3-5.76S480.09,1265.26,480.7,1267.92Z"/><polygon class="cls-3" points="308.32 1187.74 539.19 1169.93 554.6 1223.08 543.87 1224.23 533.35 1225.35 322.08 1244.31 308.32 1187.74"/><path class="cls-4" d="M337.44,1206.69c.61,2.67-.74,5.24-3,5.76s-4.61-1.22-5.21-3.88.74-5.24,3-5.76S336.83,1204,337.44,1206.69Z"/><path class="cls-4" d="M354.07,1204.81c.61,2.66-.74,5.24-3,5.76s-4.61-1.22-5.21-3.88.74-5.25,3-5.76S353.46,1202.15,354.07,1204.81Z"/><path class="cls-4" d="M370.7,1202.92c.61,2.66-.74,5.24-3,5.76s-4.61-1.22-5.22-3.88.74-5.24,3-5.76S370.09,1200.26,370.7,1202.92Z"/><path class="cls-9" d="M628.16,1466.56a249.71,249.71,0,0,1-7.84-45l-62.78-16.86c-2.55-1.17-29.9-13.77-38.78-22.56-9.32-9.22-14.44,16.15.21,27.75a140.75,140.75,0,0,1,10.61,9.25l-19,3a16.9,16.9,0,0,0-8.76,4.17c-13.24,12-56.42,51.88-48.25,54.36a15.48,15.48,0,0,0,6.8.29c-14.76,12.19-15.94,24.91-11.8,25.34,6.18.63,14-3.79,21.77-10.09-6.83,7.9-15.3,25.36-5.84,24.93,12.71-.58,23.36-10.46,33.5-27.16,0,0-2.5,4.33-1.39,3.35l-7.53,12.19s15.35,13.49,26.53,19.76c10.64,6,16.88-16,1.81-25.09,0,0,5.42-5.44,9.82-17,0,0,42.33,20.46,64,4.25l14.14,1.36c6.65,4.17,18.18,10.31,32.76,17.58A324.61,324.61,0,0,1,628.16,1466.56Z"/><path class="cls-4" d="M519.15,1531.4a8.46,8.46,0,0,1-4.11-1.16c-11.15-6.26-26.09-19.35-26.72-19.9a1.16,1.16,0,0,1-.38-.72c-7.48,8.16-15.12,12.24-23.39,12.62-2.95.13-4.25-1.26-4.83-2.45-2-4.06,1.46-12.06,5.38-18.33-6.57,4.41-12.16,6.39-16.66,5.93a3.3,3.3,0,0,1-2.79-2.59c-1.15-3.78,1.1-12.94,11.43-22.51a14.14,14.14,0,0,1-3.85-.56,2.46,2.46,0,0,1-1.75-1.83c-.3-1.35-1.11-5,19.71-26.06,10.87-11,23.37-22.52,29.86-28.39a17.92,17.92,0,0,1,9.34-4.45l16.75-2.61c-2.75-2.57-5.67-5.07-8.88-7.61-8.26-6.54-10.59-17.27-9.26-24.47.7-3.79,2.39-6.36,4.65-7.07,1.31-.41,3.39-.38,5.91,2.11,8.61,8.52,35,20.73,38.37,22.29l62.68,16.84a1.11,1.11,0,0,1,.83,1,250.6,250.6,0,0,0,7.82,44.79.59.59,0,0,1,0,.13,320,320,0,0,0,9.91,43.64,1.13,1.13,0,0,1-1.59,1.32c-14.89-7.42-26.16-13.46-32.63-17.49l-13.45-1.29c-20.29,14.71-56.72-.71-63.68-3.88a55.9,55.9,0,0,1-8.71,15.23c9.35,6.41,9.87,17.46,6.5,23.27C524,1530,521.72,1531.4,519.15,1531.4Zm-28.61-22.13c3.16,2.72,16,13.62,25.61,19,4.25,2.39,6.68-.74,7.52-2.19,3-5.1,2.23-15.49-6.84-20.94a1.12,1.12,0,0,1-.22-1.77s5.32-5.44,9.56-16.6a1.17,1.17,0,0,1,.64-.65,1.15,1.15,0,0,1,.91,0c.42.2,42,20,62.8,4.36a1.13,1.13,0,0,1,.79-.22l14.14,1.36a1.11,1.11,0,0,1,.49.17c6,3.78,16.51,9.42,30.36,16.37a318.32,318.32,0,0,1-9.25-41.4,252.78,252.78,0,0,1-7.79-44.34l-62-16.65-.18-.07c-3.05-1.39-30.13-13.9-39.1-22.78-1-.93-2.35-2-3.65-1.55s-2.57,2.47-3.1,5.32a24,24,0,0,0,8.45,22.29,141.65,141.65,0,0,1,10.7,9.33,1.13,1.13,0,0,1-.62,1.93l-19,3a15.74,15.74,0,0,0-8.17,3.89c-6.47,5.86-18.94,17.34-29.77,28.31-18.51,18.77-19.31,23.1-19.11,24,0,.07,0,.11.2.16a14.4,14.4,0,0,0,6.3.25,1.13,1.13,0,0,1,.89,2c-10.93,9-14.38,18.68-13.27,22.35q.29.93.87,1c5.17.54,12.22-2.77,20.94-9.84a1.13,1.13,0,0,1,1.56,1.62c-5.66,6.55-11.23,18.16-9.43,21.88.27.55.83,1.27,2.69,1.18,11.53-.53,21.88-9,32.58-26.61a1.13,1.13,0,0,1,2,1.15c-.47.82-1,1.8-1.3,2.43a1.12,1.12,0,0,1-.11.94Z"/><polyline class="cls-9" points="470.33 1496.18 487.02 1460.81 505.1 1446.49"/><polygon class="cls-4" points="471.35 1496.66 469.31 1495.7 486.11 1460.09 504.4 1445.6 505.8 1447.38 487.93 1461.53 471.35 1496.66"/><line class="cls-9" x1="460.36" y1="1480.93" x2="479.7" y2="1459.03"/><rect class="cls-4" x="455.42" y="1468.85" width="29.22" height="2.26" transform="translate(-943.06 849.53) rotate(-48.56)"/><polyline class="cls-9" points="529.53 1450.87 507.94 1466.18 496.6 1497.3"/><path class="cls-4" d="M497.66,1497.68l-2.12-.77,11.34-31.11a1.15,1.15,0,0,1,.41-.54l21.59-15.32,1.31,1.85-21.31,15.11Z"/><line class="cls-9" x1="529.58" y1="1419.15" x2="553.16" y2="1415.77"/><rect class="cls-4" x="529.46" y="1416.33" width="23.82" height="2.26" transform="translate(-196.12 91.42) rotate(-8.18)"/><ellipse class="cls-5" cx="1159.38" cy="725.55" rx="104.54" ry="68.65" transform="translate(36.35 1506.19) rotate(-66.84)"/><path class="cls-10" d="M1425.25,979.94c-34.56-59.34-21.3-184.21-21.3-184.21l-7.77,7.1c34.63-90.54,5.66-127.12,5.66-127.12-85.48-127.21-213.4-43.11-213.4-43.11s-93.86,15-59.13,127.16c2.1,6.81,3,15.11,3.25,23.76-.28,1-14.79,54.21-19.93,64.19C1108.9,855,1137.57,858,1138.57,870c9.22,110.31,106.93,97.44,134.65,85,3.81,20,7.73,41.46,7.73,41.46,9.23,73.11-94,120.13-94,120.13l195.86,74,194.62-124.17S1467.37,1052.25,1425.25,979.94Z"/><path class="cls-11" d="M1273.22,955s16.26-4.09,46.08-30"/><path class="cls-4" d="M1152.52,807.91c0,5.47,3.5,9.87,7.71,9.84s7.59-4.51,7.54-10-3.51-9.88-7.72-9.84S1152.47,802.43,1152.52,807.91Z"/><path class="cls-4" d="M1189.73,769.37c-6.15-8.43-14.87-11.4-21.81-13.65-7.69-2.5-15.26-5-18.51-1.39-2,2.16-2,6.18-.38,8.72,2.32,3.56,7.54,3.43,12.39,3.94,18.9,2,29.71,13.29,31.85,10.5C1194.49,775.9,1191.38,771.64,1189.73,769.37Z"/><path class="cls-4" d="M1153.9,898.18a1.63,1.63,0,0,1-.07-3.25c.2,0,20.26-1,33.15-14.21a1.62,1.62,0,1,1,2.32,2.27c-13.8,14.14-34.46,15.15-35.34,15.18Z"/><path class="cls-12" d="M1788.55,1400.61s35.73,86.43,36.36,162.4c.34,40.84-30,135.29-30,135.29"/><path class="cls-13" d="M1611.24,1555.83c.79-6.2,130.2,12.12,130.25,11.9,0,0-44.35-403.75-117.8-490-3.73-8-16.09-24.64-55.48-30.45-11.7-1.73-23.2-3.88-34.19-6.25h0c-38.54-8.29-69.93-19.81-78.9-25.5,0,0,.06.35.12.87-.21-.13-.48-.26-.67-.38a36.51,36.51,0,0,1-1,16.88c-.25.81-.51,1.62-.84,2.44-.13.35-.29.7-.44,1.06a32.88,32.88,0,0,1-2,4c-12,19.85-91.84,27.87-171.63-14.29,0,0-15.79,9-38.09,21.85-77.23,44.64-99.85,79-149.27,153.23-57.47,86.38-168.06,190.56-173.38,188.41.42,1,1.2,3,2.36,5.78l-2.71-1.78H668.17c-99,2.8-91.54,128-91.54,128l290.23,23.22c97.35,7.79,194.8-16.82,276-71.14,29.89-20,56.35-43.18,71.74-68.83.4,21.16-10.27,236.31-10.27,236.31s277.3,90.07,420.3,14C1624.6,1655.13,1604.61,1608.22,1611.24,1555.83Z"/><path class="cls-14" d="M917.55,1388.93c0,.37.13.58.35.67C917.67,1389.06,917.55,1388.82,917.55,1388.93Z"/><path class="cls-5" d="M1417.83,600.87a134.71,134.71,0,0,0-20.57-16c-36.46-23.06-74.15-23.28-99.83-21.58-62.06,4.1-119.89,32.9-161.55,79.08-24.07,26.68-29.21,60.32-13.37,57.24,35.84-7,35.21,2.65,73.38,19.65,19.11,8.51,38,15.85,70,26.15,38.81,12.49,58.21-1.11,65.38,10.27a15,15,0,0,1,2.06,7.21c3,32.27,1.77,94.1,2.8,115.62,2.71,56.33,31.38,59.34,20.59,87.78-8.23,21.71-27.17,25.88-56.61,72.21-7,11-9.25,16-10.89,21.08-9.42,29.13,3.41,54.55,7.9,69.27,21.11,69.28-70.82,137.61-49.85,164.72,12.45,16.1,54.71,4.78,78.72-5.58,57.26-24.7,85.79-76.39,96.84-95.2,87.78-149.37,203.87-148.62,229.75-237.33C1663.05,919.71,1676.35,809.44,1417.83,600.87Z"/><path class="cls-9" d="M1547.55,1369.21h0c139.65,0,261.21,77.42,324.13,191.67-55.57-133-187-226.69-339.89-226.69-203,0-368.17,165.16-368.17,368.17v40.39h14.13V1739C1177.75,1534.77,1343.31,1369.21,1547.55,1369.21Z"/><path class="cls-4" d="M1162,1744.37v-42c0-204.23,165.57-369.79,369.8-369.79h0c159.54,0,295.47,101,347.34,242.58q3.43,6.94,6.59,14a371.51,371.51,0,0,0-725.35,113.17V1746h17.38v-1.63Z"/><path class="cls-4" d="M1531.79,1332.57h0c-204.23,0-369.8,165.56-369.8,369.79v42h15.76v-1.62h-14.13v-40.39c0-203,165.16-368.17,368.17-368.17,152.91,0,284.32,93.7,339.89,226.69q3.87,7,7.45,14.27C1827.26,1433.59,1691.33,1332.57,1531.79,1332.57Z"/><path class="cls-1" d="M1900,1702.36a366.14,366.14,0,0,0-28.29-141.48c-62.92-114.25-184.48-191.67-324.13-191.67h0c-204.24,0-369.8,165.56-369.8,369.79v3.75H1900Z"/><line class="cls-15" x1="1947.39" y1="1745.46" x2="709.8" y2="1745.46"/><path class="cls-3" d="M826.81,576.52c-60.9,4.63-110.82,53-117.24,113.76a128,128,0,0,0,10.59,66.48,16.62,16.62,0,0,1,.54,11.94l-12.63,39a9.86,9.86,0,0,0,11.77,12.59l36.79-9.23a16.59,16.59,0,0,1,12.79,1.83,127.53,127.53,0,0,0,77.91,18.78c62-5,112.2-55.19,117.08-117.2A128,128,0,0,0,826.81,576.52Z"/><path class="cls-10" d="M895.57,689.41v48.2s-13.11,19-56.69,19-56.69-19-56.69-19v-48.2"/><line class="cls-11" x1="880.11" y1="697.54" x2="880.11" y2="771.86"/><path class="cls-10" d="M837.48,716.46,751.8,680a3.57,3.57,0,0,1,.15-6.63l85.69-31.79a3.64,3.64,0,0,1,2.48,0l85.69,31.79A3.57,3.57,0,0,1,926,680l-85.68,36.43A3.58,3.58,0,0,1,837.48,716.46Z"/><path class="cls-4" d="M880.11,785a6.57,6.57,0,1,1,6.56-6.56A6.57,6.57,0,0,1,880.11,785Z"/><circle class="cls-11" cx="1170.38" cy="818.89" r="40.64"/><line class="cls-11" x1="1209.48" y1="807.84" x2="1334.56" y2="789.09"/><line class="cls-3" x1="654.79" y1="400.58" x2="654.79" y2="410.25"/><line class="cls-3" x1="623.95" y1="417.59" x2="632.32" y2="422.42"/><line class="cls-3" x1="623.26" y1="452.8" x2="631.63" y2="447.97"/><line class="cls-3" x1="653.41" y1="471.01" x2="653.41" y2="461.34"/><line class="cls-3" x1="684.25" y1="454" x2="675.88" y2="449.16"/><line class="cls-3" x1="684.94" y1="418.78" x2="676.56" y2="423.62"/><line class="cls-3" x1="1021.08" y1="980.36" x2="1021.08" y2="990.03"/><line class="cls-3" x1="990.24" y1="997.37" x2="998.61" y2="1002.21"/><line class="cls-3" x1="989.55" y1="1032.59" x2="997.92" y2="1027.75"/><line class="cls-3" x1="1019.7" y1="1050.79" x2="1019.7" y2="1041.12"/><line class="cls-3" x1="1050.54" y1="1033.78" x2="1042.17" y2="1028.94"/><line class="cls-3" x1="1051.23" y1="998.56" x2="1042.86" y2="1003.4"/><line class="cls-3" x1="1688.64" y1="450.43" x2="1688.64" y2="460.1"/><line class="cls-3" x1="1657.8" y1="467.44" x2="1666.18" y2="472.27"/><line class="cls-3" x1="1657.11" y1="502.65" x2="1665.49" y2="497.82"/><line class="cls-3" x1="1687.27" y1="520.86" x2="1687.27" y2="511.19"/><line class="cls-3" x1="1718.11" y1="503.85" x2="1709.73" y2="499.01"/><line class="cls-3" x1="1718.8" y1="468.63" x2="1710.42" y2="473.47"/><path class="cls-3" d="M388.26,778.22a12.68,12.68,0,1,1-12.68-12.68A12.68,12.68,0,0,1,388.26,778.22Z"/><path class="cls-3" d="M1801.41,1044.81a12.68,12.68,0,1,1-12.67-12.67A12.68,12.68,0,0,1,1801.41,1044.81Z"/><path class="cls-3" d="M1502.94,304.67H967.59A59.6,59.6,0,0,0,908,364.27h0a59.61,59.61,0,0,0,59.61,59.61h39.17l57.41,53.58a8.38,8.38,0,0,0,13.81-8.33l-12.32-45.25h437.28a59.6,59.6,0,0,0,59.6-59.61h0A59.6,59.6,0,0,0,1502.94,304.67Z"/><circle class="cls-4" cx="1039.92" cy="365.03" r="11.38"/><circle class="cls-4" cx="1138" cy="365.03" r="11.38"/><circle class="cls-4" cx="1240.95" cy="365.03" r="11.38"/><circle class="cls-4" cx="1343.9" cy="365.03" r="11.38"/><circle class="cls-4" cx="1430.6" cy="365.03" r="11.38"/></g></svg>